<?xml version="1.0" encoding="UTF-8"?>
<svg id="Layer_1" data-name="Layer 1" xmlns="http://www.w3.org/2000/svg" viewBox="0 0 199.6 212.85">
  <path d="m194.18,109.81c-.06,22.37-7.6,42-21.67,59.28-3.79,4.66-3.65,2.69-.61,8.01,4.24,7.41,8.38,14.86,10.49,23.22.44,1.73.67,3.56.66,5.34-.04,5.02-3.43,8.1-8.32,6.9-4.04-.99-8.13-2.52-11.66-4.68-6.66-4.09-12.97-8.77-19.34-13.32-1.41-1-2.44-1.19-4.08-.48-25.73,11.13-51.49,11.41-77.2-.05-1.58-.71-2.64-.63-4.1.39-7.09,4.97-14.21,9.91-21.51,14.56-2.58,1.64-5.62,2.76-8.6,3.51-5.86,1.49-9.68-1.81-9.41-7.86.22-4.86,1.81-9.4,3.96-13.69,2.67-5.32,5.48-10.58,8.51-15.71,1.09-1.85,1.01-3-.32-4.53-6.14-7.04-11.42-14.7-15-23.35C1.13,111.45,5.88,78.14,30.6,48.29c16.29-19.68,38-30.18,63.42-32.04,44.75-3.28,81.25,24.3,94.58,60.95,4.29,11.79,5.6,19.81,5.58,32.61Zm-16.06-.12c1.66-41.12-34.35-77.76-77.16-77.87-38.31-.1-77.38,31.89-77.34,77.39.03,42.69,34.91,77.74,77.7,77.42,46.21-.35,78.11-39.27,76.81-76.94Z"/>
  <path d="m186.88,53.77c-11.1-16.86-24.74-30.11-42.57-38.93.19-.44.27-.87.52-1.14,3.49-3.65,6.8-7.5,10.57-10.83,4.22-3.73,11.08-3.84,15.39-.21,8.46,7.13,16.79,14.44,24.95,21.93,4.38,4.02,5.13,11.16,1.72,16.03-3.16,4.51-6.89,8.61-10.59,13.16Z"/>
  <path d="m12.77,53.95c-3.93-4.99-7.91-9.43-11.15-14.36-2.92-4.44-1.73-11.31,2.22-14.93C11.89,17.27,20.04,9.96,28.33,2.83c4.65-3.99,12.19-3.62,16.61.59,3.35,3.2,6.47,6.64,9.68,9.99.28.29.46.68.87,1.3-8.72,4.47-16.84,9.66-23.86,16.43-6.99,6.73-13.39,13.96-18.85,22.8Z"/>
  <path d="m104.73,75.68c0,7.49,0,14.97,0,22.46,0,2.69.68,3.58,3.39,3.86,2.41.25,4.84.33,7.26.38,10.46.2,20.93.33,31.39.57,3.27.07,5.37,1.76,6.16,4.61,1.11,4-1.44,7.74-5.61,7.84-10.25.23-20.51.31-30.77.46-1.8.03-3.63-.11-5.4.16-1.87.29-3.79.72-5.48,1.53-4.78,2.3-9.93.98-12.72-3.48-2.66-4.26-1.54-9.7,2.82-12.61,1.5-1,1.86-2.09,1.86-3.75-.03-14.21.02-28.42.06-42.63,0-.9.03-1.8.08-2.7.15-2.52,1.06-3.53,3.13-3.51,2.1.02,3.81,1.68,3.81,3.76.01,7.69,0,15.39,0,23.08Z"/>
</svg>