<?xml version="1.0" encoding="UTF-8"?>
<svg id="Layer_1" data-name="Layer 1" xmlns="http://www.w3.org/2000/svg" viewBox="0 0 273.79 273.79">
  <defs>
    <style>
      .cls-1 {
        fill: #fff;
      }
    </style>
  </defs>
  <path class="cls-1" d="m273.79,144.11v129.68H0V0C44.45,0,88.92,0,133.39,0c-1.12.19-2.24.4-3.37.56-2.72.38-5.51.48-8.15,1.16-6.99,1.81-11.52,8.3-10.66,14.89,1.01,7.75,6.19,12.59,13.9,12.72,2.83.05,5.66-.38,8.5-.52,12.75-.64,24.93,1.94,36.5,7.14,26.28,11.81,46.41,30.66,61.33,55.05,10.44,17.07,16.01,35.49,13.2,55.86-.62,4.52.74,8.84,4.26,12.13,8.24,7.7,20.98,3.64,23.7-7.6.58-2.38.81-4.85,1.2-7.28Zm-69.6,128.61c.98,0,1.96.09,2.93-.01,5.63-.6,11.18-1.69,15.44-5.73,5.49-5.19,10.89-10.5,16.02-16.05,4.38-4.73,7.9-10.11,8.97-16.66,1.35-8.29-1.89-15.19-7.11-21.25-7.64-8.85-16.94-15.71-27.21-21.18-13.96-7.44-23.51-6.07-35.11,4.68-2.8,2.6-5.48,5.34-8.18,8.05-2.84,2.85-6.18,3.93-10.19,3.31-7.06-1.09-13.01-4.59-18.76-8.49-13.31-9.03-25-19.96-36.35-31.27-10.78-10.74-21.37-21.71-29.81-34.44-3.35-5.05-5.99-10.65-8.29-16.28-2.08-5.1-.78-9.85,3.43-13.78,3.18-2.96,6.14-6.19,9.05-9.43,6.99-7.79,9.38-16.61,5.33-26.59-5.55-13.7-14.06-25.42-25.64-34.49-11.61-9.09-22.26-8.57-33.66.89-5.18,4.3-9.63,9.48-14.69,13.94C3.06,54.41.48,62.62.48,72.02c0,8.7,1.61,17.13,4.05,25.43,5.97,20.31,15.85,38.74,27.71,56.12,19.6,28.73,43.39,53.58,70.74,75.02,21.67,16.99,44.94,31.18,71.38,39.58,9.68,3.08,19.58,5.07,29.83,4.55Zm-63.21-219.99c-9.43.22-14.42,3.85-16.24,10.34-1.71,6.1.57,12.55,6.05,15.7,2.47,1.42,5.41,2.21,8.24,2.82,24.62,5.36,41.23,20.12,50.56,43.22,1.94,4.81,2.6,10.12,4.12,15.12,1.93,6.35,7.8,10.35,14.15,9.98,6.72-.39,12.16-4.82,13.03-11.53.47-3.58.09-7.47-.8-11-8.95-35.48-30.86-59.22-65.39-71.22-5.07-1.76-10.45-2.63-13.71-3.42Z"/>
  <path d="m273.79,144.11c-.39,2.43-.62,4.9-1.2,7.28-2.73,11.24-15.46,15.3-23.7,7.6-3.52-3.29-4.89-7.61-4.26-12.13,2.81-20.37-2.76-38.78-13.2-55.86-14.91-24.4-35.05-43.24-61.33-55.05-11.57-5.2-23.74-7.78-36.5-7.14-2.83.14-5.67.57-8.5.52-7.7-.13-12.89-4.97-13.9-12.72-.86-6.59,3.67-13.08,10.66-14.89,2.64-.68,5.43-.78,8.15-1.16,1.13-.16,2.25-.37,3.37-.56,1.78,0,3.56,0,5.34,0,1.04.16,2.08.43,3.13.48,12.44.55,24.38,3.42,35.94,7.94,25.17,9.85,45.6,26.15,62.93,46.57,15.54,18.31,26.51,38.94,31.14,62.68.78,3.98,1.29,8.02,1.92,12.03v14.41Z"/>
  <path class="cls-1" d="m273.79,129.7c-.63-4.01-1.14-8.05-1.92-12.03-4.63-23.74-15.6-44.37-31.14-62.68-17.33-20.42-37.76-36.73-62.93-46.57-11.55-4.52-23.49-7.38-35.94-7.94-1.05-.05-2.09-.31-3.13-.48,45.02,0,90.04,0,135.06,0v129.7Z"/>
  <path d="m204.19,272.72c-10.25.53-20.15-1.47-29.83-4.55-26.44-8.4-49.71-22.59-71.38-39.58-27.35-21.44-51.13-46.3-70.74-75.02-11.86-17.38-21.74-35.81-27.71-56.12C2.09,89.15.48,80.72.48,72.02c0-9.39,2.58-17.61,9.89-24.07,5.06-4.47,9.5-9.65,14.69-13.94,11.4-9.46,22.06-9.98,33.66-.89,11.58,9.07,20.09,20.79,25.64,34.49,4.04,9.98,1.66,18.8-5.33,26.59-2.91,3.24-5.86,6.47-9.05,9.43-4.22,3.92-5.51,8.67-3.43,13.78,2.29,5.62,4.94,11.23,8.29,16.28,8.44,12.73,19.02,23.7,29.81,34.44,11.35,11.31,23.04,22.24,36.35,31.27,5.75,3.9,11.7,7.41,18.76,8.49,4.01.62,7.35-.47,10.19-3.31,2.7-2.71,5.37-5.45,8.18-8.05,11.6-10.75,21.15-12.12,35.11-4.68,10.27,5.47,19.57,12.33,27.21,21.18,5.22,6.05,8.46,12.96,7.11,21.25-1.07,6.55-4.59,11.94-8.97,16.66-5.13,5.54-10.53,10.86-16.02,16.05-4.27,4.03-9.81,5.13-15.44,5.73-.97.1-1.95.01-2.93.01Z"/>
  <path d="m140.98,52.73c3.25.79,8.64,1.66,13.71,3.42,34.53,12,56.44,35.74,65.39,71.22.89,3.53,1.27,7.42.8,11-.87,6.71-6.31,11.14-13.03,11.53-6.35.37-12.21-3.63-14.15-9.98-1.52-5-2.17-10.31-4.12-15.12-9.33-23.09-25.94-37.86-50.56-43.22-2.83-.62-5.76-1.4-8.24-2.82-5.48-3.15-7.75-9.6-6.05-15.7,1.81-6.48,6.81-10.12,16.24-10.34Z"/>
</svg>