<?xml version="1.0" encoding="UTF-8"?>
<svg id="Layer_1" data-name="Layer 1" xmlns="http://www.w3.org/2000/svg" viewBox="0 0 291.16 222.75">
  <path d="m291.16,116.91c-.77.68-1.58,1.33-2.31,2.06-23.51,23.5-47.02,47-70.52,70.51-4.06,4.06-6.11,4.05-10.2-.03-2.01-2.01-4.03-4-6.02-6.03-3.26-3.32-3.29-5.7,0-8.98,13.78-13.81,27.58-27.6,41.38-41.39,7.16-7.16,14.33-14.31,22.02-21.99-1.55-1.3-3.1-2.41-4.43-3.74-19.44-19.4-38.85-38.83-58.27-58.25-4.21-4.21-4.21-6.23-.02-10.43,2.01-2.01,4-4.04,6.03-6.02,3.1-3.03,5.74-3.07,8.84.01,8.53,8.48,17.02,17,25.52,25.5,15.2,15.2,30.4,30.41,45.62,45.59.7.7,1.58,1.22,2.38,1.83v11.36Z"/>
  <path d="m105.2,214.36c.15-.61.36-1.53.62-2.44,19.91-68.92,39.82-137.85,59.74-206.77,1.39-4.81,3.4-5.95,8.17-4.66,2.55.69,5.11,1.38,7.64,2.13,4.34,1.3,5.56,3.54,4.29,7.94-7.45,25.86-14.91,51.71-22.38,77.56-12.48,43.17-24.96,86.34-37.45,129.51-1.37,4.74-3.47,5.91-8.2,4.62-2.82-.78-5.65-1.54-8.46-2.36-2.58-.75-3.92-2.49-3.96-5.53Z"/>
  <path d="m26.34,111.55c7.84,7.81,15.62,15.56,23.39,23.32,13,12.98,25.98,25.98,38.97,38.97,4.06,4.06,4.05,6.12-.03,10.21-2,2.01-4,4.04-6.03,6.02-3.33,3.25-5.71,3.26-8.99-.01-9.79-9.76-19.56-19.55-29.33-29.32-13.99-13.99-27.96-28.01-42.02-41.95-1.55-1.53-1.9-3.12-2.17-5.18-.69-5.38,1.42-9.04,5.23-12.79,22.67-22.32,45.08-44.91,67.58-67.41,4.15-4.15,6.29-4.15,10.46,0,1.95,1.94,3.9,3.86,5.82,5.83,3.34,3.42,3.35,5.83-.04,9.24-11.7,11.73-23.43,23.44-35.15,35.16-8.77,8.77-17.54,17.54-26.31,26.32-.46.46-.86.98-1.39,1.59Z"/>
</svg>