<?xml version="1.0" encoding="UTF-8"?>
<svg id="Layer_1" data-name="Layer 1" xmlns="http://www.w3.org/2000/svg" viewBox="0 0 208.96 217.29">
  <path d="m54.27,207.45c-1.64-.74-3.3-1.45-4.92-2.23-19.99-9.54-32.3-25.81-39.91-46.03C2.08,139.64-.37,119.26.05,98.47c0-.44.16-.87.27-1.44h175.46c-.53,10.33-1.04,20.44-1.56,30.53,16.17-3.93,26.92-.07,32.44,11.68,4.94,10.52,1.75,22.91-7.66,29.76-10.5,7.63-21.74,5.76-34.5-5.91-8.73,20.38-22.3,36.05-43.17,44.99,1.09,0,2.17,0,3.26,0,13.44,0,26.88,0,40.31,0,1.04,0,2.12-.11,3.12.11,2.42.54,3.93,2.06,3.83,4.63-.1,2.52-1.52,4.07-4.07,4.39-1.03.13-2.08.07-3.12.07-50.74,0-101.48,0-152.22,0-.46,0-.93,0-1.39,0-3.92-.06-6.02-1.73-5.94-4.72.08-2.81,2.18-4.47,5.86-4.47,14.36-.02,28.72,0,43.08,0,.08-.21.16-.42.23-.63ZM9.47,106.2c-.08.74-.22,1.29-.2,1.84.72,18.04,3.21,35.75,10.48,52.47,7.44,17.11,18.97,30.39,36.58,37.57,13.49,5.49,27.61,6.64,41.97,5.1,22.17-2.38,39.71-12.42,51.59-31.63,8.96-14.49,13.03-30.56,15-47.26.7-5.93,1-11.9,1.49-18.08H9.47Zm175.4,58.09c8.2,0,14.81-6.56,14.82-14.72.01-8.17-6.56-14.79-14.73-14.83-8.19-.04-14.75,6.5-14.77,14.74-.02,8.23,6.5,14.81,14.68,14.81Z"/>
  <path d="m85.39,18.37c-1.39,7.85-3.26,17.62-4.8,27.44-.81,5.19-1.88,10.45,1.51,15.43,1.38,2.02.35,4.35-1.81,5.65-2.19,1.32-4.28.8-5.92-1.09-3.98-4.59-4.34-10.17-3.65-15.75.86-6.99,2.3-13.91,3.42-20.88.7-4.34,1.39-8.68,1.86-13.04.35-3.23.2-6.38-1.93-9.26-1.53-2.06-.84-4.33,1.16-5.82,2.14-1.59,4.42-1.34,6.25.64,3.86,4.19,4,9.41,3.91,16.69Z"/>
  <path d="m66.08,32.81c-.58,2.4-1.39,6.11-2.37,9.77-.84,3.12-2.03,6.15-2.78,9.28-.68,2.82-.93,5.63,1.15,8.23,1.77,2.21,1.5,4.65-.73,6.43-2.26,1.79-4.56,1.3-6.47-.78-3.19-3.46-4.44-7.68-3.55-12.18,1-5.08,2.55-10.05,3.96-15.04,1.2-4.26,2.4-8.32-.66-12.55-.74-1.03.12-4.09,1.22-5.38,1.57-1.84,4.07-1.48,5.9.21,3.08,2.83,4.15,6.56,4.34,12Z"/>
  <path d="m104.86,33.49c-.67,2.58-1.75,6.81-2.88,11.03-.75,2.78-2.02,5.5-2.26,8.32-.19,2.34.39,4.96,1.35,7.14,1.12,2.55,1.36,4.66-.79,6.55-1.99,1.75-4.63,1.31-6.71-1.02-3.15-3.52-4.24-7.77-3.32-12.25,1.06-5.18,2.66-10.25,4.11-15.35,1.15-4.07,2.14-7.96-.92-11.82-1.49-1.87-.65-4.09,1.14-5.53,1.95-1.56,4.16-1.48,6.01.21,3.18,2.92,4.26,6.75,4.28,12.72Z"/>
</svg>