<?xml version="1.0" encoding="UTF-8"?>
<svg id="Layer_1" data-name="Layer 1" xmlns="http://www.w3.org/2000/svg" viewBox="0 0 220.68 163.73">
  <path d="m184.57,147.62H36.45c-.11,1.56-.27,2.9-.29,4.24-.18,10.71-1.28,11.82-11.85,11.86-11.89.04-12.59-1.12-13.25-12.93-.38-6.87-1.94-13.82-3.94-20.44-6.66-22.02-5.11-43.4,3.46-64.34-2.75-1.79-6.62-3.13-8.48-5.85C.3,57.53.11,53.5,0,50.06c-.15-5.03,2.56-7.95,7.84-8,.24,0,.48-.05.71,0,13.37,3.04,20.48-3.66,24.64-15.46,1.17-3.31,3.25-6.3,4.95-9.42C44.08,6.27,53.3.26,65.7.17c29.63-.22,59.26-.22,88.88,0,12.4.09,21.62,6.08,27.57,16.99,1.48,2.7,3.27,5.29,4.32,8.15,4.48,12.17,11.32,20.04,26.02,17.1,2.1-.42,6.64,3.13,7.34,5.61,1.55,5.46,1.44,11.5-4.46,15.14-1.76,1.09-3.92,1.54-6,2.32,8.93,19.58,10.91,40.13,4.65,60.61-2.89,9.47-4.77,18.58-4.24,28.31.34,6.22-2.6,9.3-8.81,9.32-2.13,0-4.27.06-6.4,0-7.91-.21-9.38-1.71-9.7-9.74-.08-1.88-.18-3.76-.31-6.34ZM32.59,64.82c26.56,0,51.68.11,76.8-.19,2.19-.03,4.29-2.82,6.53-4.15,4.07-2.41,8.08-6.3,12.37-6.68,10.82-.96,21.82-.82,32.67-.06,3.98.28,9.38,2.56,11.27,5.67,3.92,6.43,8.86,5.63,15.27,4.97-5.41-13.62-10.87-26.68-15.77-39.94-3.15-8.51-9.4-12.71-17.76-12.81-29.16-.35-58.33-.23-87.49-.07-6.74.04-13.21,2.7-15.98,8.9-6.35,14.19-11.72,28.83-17.91,44.36Zm5.68,25.64c-6.37.09-10.74,4.62-10.52,10.88.31,8.83,9.58,17.65,18.41,17.52,6.35-.1,11.04-4.52,11.16-10.52.15-8.31-10.18-18.01-19.05-17.88Zm154.29,10.79c.17-6.25-4.26-10.75-10.62-10.79-8.57-.06-18.6,9.09-18.93,17.27-.25,6.28,4.59,11.08,11.23,11.14,8.84.07,18.08-8.81,18.32-17.61Zm-83.14,19.76c9.93,0,19.87.23,29.79-.18,2.17-.09,4.24-2.46,6.35-3.78-2.22-1.28-4.42-3.64-6.65-3.67-19.15-.29-38.31-.29-57.46,0-2.25.03-4.46,2.36-6.69,3.63,2.33,1.34,4.61,3.72,7,3.84,9.2.45,18.44.18,27.66.17Z"/>
  <path d="m145.63,17.27c8.56-.04,14.85,6.16,14.93,14.71.08,8.82-6.48,15.75-14.88,15.74-8.34-.02-15.43-7.01-15.57-15.35-.14-8.41,6.69-15.06,15.52-15.1Z"/>
</svg>