<?xml version="1.0" encoding="UTF-8"?>
<svg id="Layer_1" data-name="Layer 1" xmlns="http://www.w3.org/2000/svg" viewBox="0 0 217.71 217.74">
  <path d="m108.89,0c60.21,0,108.87,48.76,108.83,109.08-.04,60-48.86,108.71-108.89,108.66C48.72,217.68-.07,168.94,0,109.02.07,48.63,48.64,0,108.89,0Zm-52,66.33c-4.41-2.08-8.74-3.98-12.92-6.15-4.19-2.18-8.22-4.63-12.41-7.02-10.84,15.19-16.81,32.15-17.85,50.9h36.28c.52-12.98,2.84-25.56,6.91-37.74Zm129.17-13.31c-8.03,5.25-16.42,9.61-25.29,13.15,4.14,12.38,6.45,24.99,6.97,37.92h36.27c-1.04-18.79-7.01-35.75-17.95-51.07ZM13.7,113.65c1.04,18.8,7.01,35.75,17.96,51.08,7.95-5.21,16.26-9.51,24.98-13.03-4.06-12.43-6.28-25.06-6.7-38.05H13.7Zm172.36,51.07c10.96-15.37,16.92-32.33,17.94-51.07h-36.23c-.42,13-2.65,25.66-6.7,38.05,8.76,3.51,17.04,7.83,24.99,13.02Zm-81.99-22.97v-28.1h-44.6c-.71,6.04,3.72,30.95,6.19,34.8,12.48-4.01,25.29-6.24,38.41-6.71Zm9.55-28.11v28.12c13.17.45,26,2.7,38.58,6.74,3.7-11.38,5.74-22.96,6.14-34.86h-44.72Zm-54.17-9.56h44.61v-28.1c-13.08-.45-25.79-2.69-38.18-6.62-3.01,6.97-6.71,27.01-6.43,34.72Zm92.44-34.74c-12.5,3.98-25.22,6.19-38.23,6.64v28.07h44.65c-.53-11.88-2.64-23.39-6.42-34.72Zm-38.27,134.63c1.1-.05,2.07.11,2.97-.71,12.74-11.55,22.78-25.08,30.05-40.66.8-1.7,1.52-3.44,2.32-5.24-11.58-3.71-23.3-5.73-35.34-6.18v52.79Zm-9.56-.06v-52.74c-12.07.48-23.78,2.49-35.29,6.19.38.89.69,1.65,1.02,2.4,7.23,16.54,17.54,30.88,30.85,43.07,1.03.94,2.06,1.31,3.42,1.09Zm44.47-143.4c-.16-.4-.26-.71-.39-1.01-7.62-17.58-18.64-32.69-33.08-45.28-.34-.3-.86-.4-1.4-.64v52.97c11.92-.46,23.49-2.44,34.88-6.04Zm-79.5-.05c11.57,3.64,23.16,5.65,35.05,6.09V13.53c-.6.31-1.13.45-1.5.77-11.71,10.18-21.21,22.13-28.49,35.83-1.77,3.33-3.33,6.78-5.06,10.33Zm61.87-44.24c11.28,12.12,20.14,25.79,26.53,41.03,4.12-1.09,20.11-9.36,22.64-11.72-13.39-14.8-29.72-24.63-49.16-29.31Zm-93.26,29.34c3.88,3.04,19.76,11.18,22.68,11.64,6.38-15.22,15.24-28.87,26.5-40.97-19.44,4.68-35.77,14.5-49.18,29.33Zm120.19,114.99c-3.07,7.5-6.73,14.62-11.03,21.41-4.32,6.82-9.22,13.2-14.6,19.23,18.92-4.82,34.83-14.54,47.95-29.07-7.15-4.61-14.51-8.42-22.31-11.56Zm-120.24,11.57c13.15,14.53,29.05,24.25,47.94,29.06-10.9-12.06-19.46-25.56-25.63-40.62-7.8,3.14-15.17,6.95-22.31,11.56Z"/>
</svg>