<?xml version="1.0" encoding="UTF-8"?>
<svg id="Layer_1" data-name="Layer 1" xmlns="http://www.w3.org/2000/svg" viewBox="0 0 290.63 218.02">
  <path d="m145.24,218.01c-32.26,0-64.53-.02-96.79,0-16.38.01-29.68-6.26-39.48-19.45-5.45-7.34-8.66-15.7-8.78-24.87-.24-18.17-.14-36.35-.15-54.53-.01-23.88-.09-47.76.03-71.63C.17,24.75,15.1,5.84,36.61,1.24,40.57.39,44.72.07,48.78.06,113.2,0,177.61-.02,242.03.03c25.16.02,44.12,15.94,48.1,40.29.41,2.53.46,5.14.46,7.72.03,40.66.07,81.32,0,121.97-.04,23.14-14.63,41.9-36.4,46.73-4.16.92-8.53,1.22-12.8,1.23-32.05.1-64.1.05-96.14.05Zm-.09-13.9c32.26,0,64.51.01,96.77,0,20.85-.01,34.74-13.67,34.78-34.43.08-40.43.07-80.87,0-121.3-.04-20.77-13.92-34.46-34.74-34.47-64.41-.01-128.81,0-193.22,0-2.25,0-4.53.04-6.75.37-16.85,2.5-28.01,15.98-28.04,34.05-.06,40.43-.03,80.87,0,121.3,0,2.57.12,5.18.58,7.7,2.91,15.86,16.36,26.72,33.2,26.75,32.47.05,64.94.02,97.42.02Z"/>
  <path d="m179.05,121.5c-1.22,1.16-2.24,2.09-3.22,3.05-8.09,7.88-16.15,15.79-24.25,23.66-4.56,4.43-7.95,4.41-12.53-.03-8.95-8.68-17.87-17.39-27.06-26.34-.95.82-1.85,1.52-2.67,2.3-19.35,18.36-38.69,36.73-58.03,55.1-1.33,1.26-2.61,2.57-4,3.75-3.79,3.22-7.85,3.07-10.88-.32-2.75-3.07-2.34-6.8,1.26-10.22,12.24-11.63,24.52-23.23,36.78-34.84,8.44-7.98,16.88-15.96,25.31-23.95.54-.51,1.02-1.09,2.56-2.74-1.18-.65-2.54-1.05-3.44-1.93-20.2-19.65-40.36-39.34-60.52-59.03-1.08-1.05-2.18-2.09-3.13-3.25-2.14-2.62-2-6.04.25-8.52,2.6-2.86,6.12-3.57,8.97-1.65,1.24.83,2.36,1.87,3.43,2.92,31.37,30.54,62.72,61.09,94.08,91.64,1,.97,2.01,1.92,3.31,3.15,1.09-.98,2.12-1.85,3.09-2.79,31.44-30.62,62.87-61.24,94.31-91.86,1.08-1.05,2.19-2.09,3.41-2.94,2.88-2,6.41-1.39,8.97,1.42,2.46,2.7,2.76,6.13.3,8.72-4.52,4.75-9.25,9.3-13.94,13.89-16.31,15.93-32.64,31.85-48.98,47.76-.92.9-1.97,1.66-3.78,4.06,1.09.51,2.42.77,3.25,1.55,20.51,19.33,40.97,38.71,61.42,58.09,5.05,4.79,3.99,10.94-2.15,12.88-3.11.98-5.45-.42-7.56-2.41-5.8-5.45-11.55-10.95-17.33-16.43-14.74-14-29.48-28-44.23-41.99-.85-.81-1.75-1.57-2.98-2.67Z"/>
</svg>