<?xml version="1.0" encoding="UTF-8"?>
<svg id="Layer_1" data-name="Layer 1" xmlns="http://www.w3.org/2000/svg" viewBox="0 0 236.7 247.01">
  <path d="m236.7,116.45c-2.72,5.14-6.77,7.24-12.77,7.05-12.32-.39-24.67-.31-37-.02-5.08.12-8.53-1.86-11.36-5.76-6.31-8.68-12.68-17.31-19.45-26.52-8.83,14.95-17.43,29.52-26.2,44.38,10.26,10.21,20.36,20.26,30.45,30.3,5.31,5.29,5.9,8.68,2.53,15.44-9.67,19.41-19.39,38.8-29.07,58.21-3.17,6.35-9.04,9.05-14.4,6.58-6.03-2.78-7.9-9.04-4.51-15.99,5.12-10.5,10.42-20.91,15.64-31.36,3.22-6.43,6.35-12.9,9.7-19.26,1.16-2.2.72-3.32-1.28-4.68-15.02-10.26-29.95-20.66-44.94-30.97-7.88-5.42-11.06-15.25-6.43-23.67,5.92-10.77,12.71-21.06,19.17-31.53,4.55-7.39,9.17-14.74,14.01-22.51-8.79-4.15-17.17-8.21-25.68-11.96-.94-.42-2.85.61-3.96,1.44-10.82,8-21.52,16.14-32.33,24.14-7.21,5.33-15.47,2.63-17.4-5.79-1.07-4.69,1.05-8.45,4.82-11.27,10.78-8.05,21.58-16.09,32.36-24.14,2.26-1.69,4.55-3.33,6.75-5.09,4.05-3.25,8.49-3.51,12.98-1.38,20.15,9.58,40.28,19.19,60.32,29,2.15,1.05,3.92,3.24,5.42,5.24,8.34,11.19,16.59,22.45,24.75,33.78,1.35,1.87,2.75,2.59,5.04,2.56,10.02-.12,20.05.13,30.07-.12,6.1-.15,10.36,2.08,12.77,7.72v6.17Z"/>
  <path d="m175,0c8.8,2.58,15.75,7.45,19.02,16.33,3.57,9.68,2.12,18.72-4.8,26.48-7.24,8.13-16.44,10.73-26.82,7.71-9.97-2.9-16.32-9.97-18.01-20.08-2.54-15.14,6.55-26.67,19.18-29.86.49-.12.94-.38,1.4-.58,3.34,0,6.68,0,10.03,0Z"/>
  <path d="m78.39,139.28c4.71,10.86,14.69,14.83,22.58,20.86-7.76,7.96-15.25,15.85-23.03,23.43-1.23,1.2-3.8,1.44-5.75,1.45-20.3.1-40.59.07-60.89.06-7.02,0-11.35-4.11-11.31-10.67.04-5.72,4.74-10.04,11.3-10.07,16.06-.07,32.12-.28,48.17.13,5.03.13,7.52-1.44,9.41-5.95,2.62-6.25,5.97-12.18,9.51-19.25Z"/>
</svg>